<?xml version="1.0" standalone="no"?>
<!DOCTYPE svg PUBLIC "-//W3C//DTD SVG 20010904//EN"
 "http://www.w3.org/TR/2001/REC-SVG-20010904/DTD/svg10.dtd">
<svg version="1.0" xmlns="http://www.w3.org/2000/svg"
 width="512.000000pt" height="512.000000pt" viewBox="0 0 512.000000 512.000000"
 preserveAspectRatio="xMidYMid meet">
<metadata>
Created by potrace 1.14, written by Peter Selinger 2001-2017
</metadata>
<g transform="translate(0.000000,512.000000) scale(0.100000,-0.100000)"
fill="#000000" stroke="none">
<path d="M2575 4975 c-5 -2 -37 -11 -70 -21 -53 -15 -117 -43 -207 -90 -14 -8
-31 -14 -38 -14 -6 0 -28 -12 -47 -27 -34 -26 -44 -28 -132 -29 -53 -1 -116
-5 -141 -9 -40 -7 -42 -9 -20 -16 23 -6 23 -7 3 -8 -12 -1 -25 -6 -29 -13 -5
-8 -2 -9 9 -5 11 4 5 -11 -17 -44 -19 -27 -38 -59 -41 -70 -4 -11 -53 -51
-110 -89 -115 -77 -149 -115 -142 -158 3 -21 -4 -42 -25 -73 -16 -24 -47 -80
-69 -124 -34 -68 -38 -84 -30 -110 5 -16 14 -47 21 -67 7 -23 8 -65 4 -111 -5
-61 -4 -75 9 -80 10 -3 13 -14 10 -31 -3 -16 -1 -26 6 -26 7 0 10 -3 8 -7 -7
-12 13 -154 24 -175 10 -19 20 -62 22 -100 1 -10 4 -18 8 -18 4 0 9 -13 12
-29 7 -32 -34 -126 -48 -113 -5 4 -5 1 -1 -6 4 -7 3 -18 -2 -25 -10 -13 -12
-31 -11 -92 2 -90 7 -105 55 -180 41 -65 66 -87 89 -79 14 6 16 14 11 46 -17
103 -2 462 21 518 3 8 7 20 7 25 4 26 35 114 52 145 11 19 26 53 33 75 8 22
21 56 29 75 9 19 17 41 18 49 2 8 7 17 12 20 5 3 12 19 16 34 4 15 15 31 25
35 11 4 33 24 49 44 16 21 32 35 36 31 3 -3 6 1 6 11 0 9 4 15 9 12 4 -3 13 6
20 20 9 20 15 23 24 15 10 -7 20 -4 40 14 14 14 30 25 35 25 5 0 19 11 32 25
13 14 30 25 37 25 8 0 38 11 67 24 44 20 72 25 157 27 62 2 112 8 124 15 25
16 65 25 135 30 100 7 169 6 182 -2 7 -5 18 -9 23 -9 21 -1 80 -18 85 -24 3
-3 26 -16 51 -29 25 -13 78 -53 117 -90 84 -80 122 -151 147 -272 9 -47 28
-113 41 -148 32 -85 50 -189 74 -426 19 -187 30 -253 30 -176 0 43 50 221 60
215 5 -3 6 4 3 15 -5 17 22 150 47 235 14 49 30 146 30 186 0 21 6 39 13 42
18 7 13 117 -8 177 -13 36 -14 53 -4 96 26 117 -32 265 -151 385 -53 54 -77
70 -123 85 -31 10 -57 22 -57 27 0 19 -52 113 -77 139 -14 15 -39 30 -55 34
-17 3 -59 33 -96 66 -36 32 -79 66 -96 75 l-31 15 23 -22 c40 -38 17 -33 -61
15 -41 25 -81 45 -89 45 -7 0 -24 7 -36 16 -13 9 -26 13 -29 10 -3 -3 -13 -2
-22 3 -20 10 -72 20 -86 16z"/>
<path d="M2825 3661 c-67 -8 -101 -25 -109 -55 -7 -28 3 -39 30 -33 13 2 21 0
18 -5 -3 -5 6 -5 23 -1 59 17 254 6 353 -20 52 -13 97 -22 99 -20 3 2 -7 16
-22 31 -71 74 -246 120 -392 103z"/>
<path d="M2044 3649 c-92 -12 -193 -71 -225 -131 -12 -22 -15 -22 67 3 150 47
321 54 350 14 15 -20 25 -19 17 3 -4 12 -3 14 5 7 6 -5 12 -17 14 -25 4 -20
22 -39 31 -33 5 3 11 -4 14 -16 3 -12 9 -21 14 -21 4 0 2 -12 -6 -26 -12 -23
-11 -30 3 -53 15 -25 15 -25 -18 4 -19 17 -36 33 -38 38 -2 4 -8 5 -13 1 -5
-3 -9 0 -9 6 0 6 -4 9 -9 6 -5 -3 -28 1 -51 9 -95 34 -219 8 -285 -58 -30 -30
-36 -41 -25 -45 8 -3 21 -14 28 -24 11 -15 24 -18 70 -16 31 1 71 -1 87 -5 22
-5 25 -5 10 2 -15 7 2 10 60 11 79 1 188 16 135 19 -24 1 -26 4 -22 37 l4 35
24 -22 c13 -12 24 -31 24 -41 0 -11 4 -17 9 -13 5 3 16 -2 24 -10 16 -15 56
-21 58 -7 0 4 2 16 5 27 11 50 12 75 3 81 -5 3 -7 9 -4 14 5 7 -10 23 -25 26
-21 4 -39 18 -34 26 3 5 13 4 22 -4 15 -12 16 -11 3 4 -7 10 -17 15 -22 12 -5
-3 -19 2 -31 10 -12 9 -17 16 -10 16 19 0 14 20 -5 21 -14 0 -15 2 -3 6 8 3
19 11 23 17 6 7 7 4 3 -6 -3 -10 -1 -18 4 -18 6 0 10 5 10 10 0 6 7 10 15 10
18 0 18 -1 0 44 -9 22 -27 41 -43 48 -31 13 -183 18 -258 7z m3 -294 c0 -39
-3 -45 -22 -45 -12 0 -30 6 -41 14 -23 18 -12 43 27 63 35 18 36 17 36 -32z
m153 15 c0 -5 -4 -10 -10 -10 -5 0 -10 5 -10 10 0 6 5 10 10 10 6 0 10 -4 10
-10z"/>
<path d="M2888 3449 c-69 -11 -138 -66 -138 -110 0 -14 15 -18 98 -24 53 -3
108 -8 122 -10 14 -2 19 -2 13 1 -9 4 -10 11 -3 24 5 10 11 32 12 49 3 40 22
40 78 0 41 -30 42 -33 25 -45 -24 -18 -5 -18 53 -1 l42 13 -27 26 c-35 33 -99
65 -143 72 -69 12 -86 12 -132 5z m-75 -99 c4 -17 0 -20 -24 -20 -33 0 -36 7
-11 30 20 20 28 18 35 -10z"/>
<path d="M2382 2863 c-22 -4 -23 -5 -5 -19 17 -13 17 -14 -2 -8 -16 5 -17 4
-5 -5 20 -14 53 -14 69 2 11 10 13 10 7 0 -8 -15 3 -17 24 -3 31 20 -34 44
-88 33z"/>
<path d="M2590 2860 c-11 -7 -1 -10 35 -10 36 0 46 3 35 10 -8 5 -24 10 -35
10 -11 0 -27 -5 -35 -10z"/>
<path d="M2125 2680 c-3 -6 3 -22 14 -38 24 -33 141 -149 144 -142 1 2 24 -10
50 -29 27 -18 55 -30 63 -27 8 3 12 2 9 -3 -4 -8 18 -8 54 -2 2 1 -2 8 -9 16
-15 17 -7 19 21 5 11 -6 19 -7 19 -1 0 5 7 12 16 15 10 4 13 2 8 -6 -5 -8 -2
-9 10 -5 10 4 31 7 47 7 20 0 28 4 23 11 -5 8 6 10 35 7 22 -2 41 0 41 4 0 5
11 6 24 2 13 -3 27 -1 30 5 4 6 16 11 27 11 10 0 19 5 19 11 0 5 -5 7 -12 3
-7 -5 -8 -3 -4 5 5 7 14 10 21 7 17 -6 79 35 128 85 l38 39 -43 -7 c-24 -5
-80 -8 -125 -8 -45 1 -79 -3 -76 -8 3 -4 15 -7 26 -6 44 3 77 -1 77 -10 0 -50
-133 -84 -302 -78 -80 2 -103 6 -113 20 -11 15 -14 15 -24 3 -14 -17 -40 -11
-58 12 -30 37 -17 42 96 42 72 0 112 4 117 12 4 6 3 8 -4 4 -6 -3 -13 -2 -17
3 -3 6 -60 10 -133 9 -97 -1 -136 3 -165 15 -21 9 -45 13 -54 10 -11 -4 -14
-3 -9 5 4 7 5 12 2 12 -3 0 -8 -5 -11 -10z"/>
<path d="M2648 2633 c7 -3 16 -2 19 1 4 3 -2 6 -13 5 -11 0 -14 -3 -6 -6z"/>
<path d="M2020 2241 c0 -5 8 -12 17 -15 15 -6 15 -9 3 -16 -8 -5 -17 -7 -20
-5 -4 2 -6 -19 -5 -48 1 -29 -3 -60 -9 -70 -8 -13 -8 -20 2 -26 10 -6 10 -14
3 -34 -7 -17 -7 -27 -1 -27 6 0 10 -5 10 -10 0 -7 -6 -7 -18 -1 -21 11 -41 -2
-44 -29 -1 -8 -4 19 -7 59 l-6 75 -37 -33 c-21 -18 -38 -37 -38 -42 0 -5 -11
-33 -25 -63 -14 -30 -25 -64 -25 -75 0 -12 -5 -21 -11 -21 -6 0 -9 -6 -6 -13
3 -7 -4 -19 -14 -25 -10 -7 -19 -19 -19 -28 0 -8 -5 -12 -10 -9 -8 5 -7 11 1
21 6 8 9 18 5 21 -14 14 -27 -23 -23 -66 3 -28 2 -39 -4 -30 -8 12 -12 11 -23
-4 -15 -19 -29 -104 -20 -118 3 -5 0 -9 -7 -9 -8 0 -10 11 -6 34 4 28 2 33
-11 31 -9 -2 -20 -4 -23 -4 -12 -2 -17 -41 -9 -69 5 -15 9 -20 9 -9 1 9 6 17
11 17 10 0 14 -21 11 -47 -1 -7 3 -13 10 -13 7 0 9 9 5 25 -9 36 10 31 23 -6
9 -27 8 -33 -13 -54 -15 -15 -20 -28 -15 -36 4 -7 5 -17 3 -21 -3 -4 0 -8 5
-8 6 0 11 -13 11 -30 0 -22 -4 -28 -15 -24 -8 4 -15 2 -15 -3 0 -17 40 -12 42
5 2 32 4 37 12 50 5 8 17 11 30 8 20 -5 20 -5 2 9 -11 8 -22 15 -26 15 -9 0
-10 49 -1 54 5 3 9 0 8 -7 -1 -31 4 -48 12 -42 6 3 15 -4 22 -17 9 -16 9 -23
0 -26 -6 -2 -11 -9 -11 -15 0 -8 3 -8 11 0 6 6 19 9 28 6 12 -4 13 -3 2 5 -9
7 -10 12 -2 16 6 4 11 13 11 19 0 7 -4 6 -10 -3 -8 -13 -10 -12 -10 3 0 9 4
17 10 17 5 0 14 9 19 19 8 14 7 20 -4 24 -9 4 -12 1 -9 -7 9 -23 -14 -28 -25
-7 -13 24 -14 61 -2 61 5 0 11 8 14 19 3 14 0 17 -14 14 -11 -3 -22 -10 -26
-16 -3 -6 -1 -7 5 -3 7 4 12 3 12 -3 0 -14 -17 -23 -24 -13 -9 15 6 53 19 48
10 -3 36 32 39 54 2 11 48 51 54 46 3 -3 2 -6 -2 -6 -3 0 0 -13 9 -29 8 -17
12 -38 8 -47 -4 -12 -3 -15 5 -10 11 7 38 -38 34 -56 -1 -5 2 -8 8 -8 5 0 10
-7 10 -16 0 -25 70 -165 79 -159 5 3 11 -1 14 -7 3 -7 10 0 16 17 9 21 14 26
20 16 5 -7 11 -12 15 -12 25 3 35 -2 41 -19 4 -12 15 -20 28 -20 18 0 19 -2 7
-10 -20 -12 -6 -23 20 -15 13 4 19 12 16 21 -11 29 12 4 24 -26 7 -16 17 -27
22 -24 6 4 5 10 -3 15 -11 7 -10 9 4 9 21 0 22 7 2 27 -9 8 -13 18 -10 21 3 4
10 0 15 -8 17 -26 12 22 -5 54 -9 16 -13 36 -11 43 3 8 0 16 -7 18 -6 3 -12
20 -12 38 0 17 -6 37 -15 44 -13 11 -13 12 0 13 10 0 7 5 -8 16 -12 8 -20 20
-17 25 4 5 1 9 -5 9 -7 0 -10 6 -8 12 3 7 -1 19 -9 26 -16 17 -17 32 0 32 8 0
7 4 -3 10 -13 9 -13 11 0 20 13 9 13 10 0 10 -13 0 -13 1 0 10 10 7 12 12 4
18 -6 4 -14 17 -18 28 -5 18 -2 23 20 28 16 4 30 3 34 -4 5 -7 11 -6 20 5 9
11 9 15 1 15 -8 0 -8 4 1 14 21 22 29 -14 9 -39 -16 -20 -16 -20 6 -1 13 11
29 16 39 12 14 -5 15 -4 4 9 -7 8 -8 15 -2 15 5 0 17 -11 26 -25 16 -24 44
-27 30 -3 -4 6 1 8 15 3 12 -4 21 -2 21 4 0 6 -5 11 -10 11 -6 0 -5 6 2 14 11
11 14 11 24 -2 9 -13 13 -10 22 16 6 18 14 32 17 32 3 0 3 -4 0 -10 -11 -17
21 -11 48 10 14 11 29 20 34 20 4 0 1 -5 -7 -11 -12 -9 -12 -10 3 -5 10 3 23
6 28 6 6 0 8 4 5 8 -3 5 8 9 25 10 16 0 50 13 75 29 25 15 60 36 77 46 l32 18
-45 -8 c-25 -5 -96 -8 -158 -8 -98 0 -115 3 -127 18 -8 11 -14 14 -17 6 -5
-15 -124 39 -162 74 -16 15 -32 27 -37 27 -4 0 -42 27 -83 60 -42 33 -76 56
-76 51z m95 -341 c3 -6 -1 -7 -9 -4 -18 7 -21 14 -7 14 6 0 13 -4 16 -10z m68
-17 c-3 -6 -11 -9 -19 -6 -20 7 -17 19 5 19 11 0 17 -6 14 -13z m77 -13 c0 -5
-7 -7 -15 -4 -8 4 -15 8 -15 10 0 2 7 4 15 4 8 0 15 -4 15 -10z m60 -22 c0 -5
-6 -8 -14 -8 -8 0 -13 8 -11 18 2 9 4 19 4 22 2 7 21 -23 21 -32z m-140 8 c0
-2 -7 -6 -15 -10 -8 -3 -15 -1 -15 4 0 6 7 10 15 10 8 0 15 -2 15 -4z m-389
-63 c-12 -20 -14 -14 -5 12 4 9 9 14 11 11 3 -2 0 -13 -6 -23z m14 -33 c3 -5
-1 -10 -10 -10 -9 0 -13 5 -10 10 3 6 8 10 10 10 2 0 7 -4 10 -10z m-25 -40
c-11 -7 -11 -11 -1 -24 8 -9 11 -26 7 -41 -8 -30 -26 -33 -26 -5 0 11 5 20 10
20 7 0 7 7 0 21 -9 15 -8 24 1 35 6 8 14 12 18 9 3 -3 -1 -10 -9 -15z m-36
-18 c2 -4 -4 -9 -15 -9 -11 -1 -17 2 -14 8 7 11 22 12 29 1z m-15 -53 c-19
-11 -24 -3 -8 14 8 9 16 11 18 5 2 -6 -3 -14 -10 -19z m-59 -20 c0 -11 -4 -17
-10 -14 -5 3 -10 13 -10 21 0 8 5 14 10 14 6 0 10 -9 10 -21z m75 -87 c-3 -3
-11 0 -18 7 -9 10 -8 11 6 5 10 -3 15 -9 12 -12z m-32 -72 c3 -11 0 -23 -5
-27 -7 -3 -8 -1 -4 5 4 7 3 12 -3 12 -6 0 -8 7 -5 15 8 20 11 19 17 -5z m382
-50 c3 -6 -1 -7 -9 -4 -18 7 -21 14 -7 14 6 0 13 -4 16 -10z m85 -30 c0 -5 -2
-10 -4 -10 -3 0 -8 5 -11 10 -3 6 -1 10 4 10 6 0 11 -4 11 -10z"/>
<path d="M3184 1895 c1 -174 0 -183 -28 -260 -39 -109 -100 -229 -148 -293
-23 -29 -38 -56 -34 -59 4 -4 29 1 57 10 27 10 54 15 59 12 6 -4 9 -3 8 2 -3
9 47 79 74 104 10 9 15 19 12 22 -3 3 -1 14 6 24 11 17 11 17 5 -2 -5 -18 -5
-19 10 -4 8 8 17 25 20 36 2 12 8 30 13 40 14 25 24 78 26 139 2 27 5 55 8 60
7 11 3 88 -5 101 -3 5 -8 40 -12 77 -3 38 -10 77 -15 86 -5 10 -7 19 -5 22 3
3 -5 13 -17 24 -12 10 -18 13 -14 7 4 -7 3 -13 -3 -13 -5 0 -11 10 -13 23 -3
12 -4 -59 -4 -158z"/>
<path d="M2145 1810 c-3 -5 -2 -10 4 -10 5 0 13 5 16 10 3 6 2 10 -4 10 -5 0
-13 -4 -16 -10z"/>
<path d="M1646 1684 c-5 -14 -4 -15 9 -4 17 14 19 20 6 20 -5 0 -12 -7 -15
-16z"/>
<path d="M1536 1673 c-15 -4 -16 -7 -5 -14 12 -7 11 -11 -3 -25 -16 -16 -43
-11 -33 7 10 15 -11 10 -24 -5 -10 -12 -8 -16 10 -21 16 -5 18 -9 9 -15 -7 -5
-21 -3 -31 3 -14 9 -22 7 -38 -7 -12 -11 -21 -24 -21 -30 1 -6 10 0 20 13 23
27 26 15 7 -22 -10 -18 -17 -23 -24 -16 -8 8 -13 7 -18 -2 -5 -7 -4 -10 1 -6
6 3 15 -3 22 -13 9 -14 9 -21 0 -26 -7 -5 -8 -3 -3 6 5 9 4 11 -4 6 -6 -4 -9
-12 -6 -17 4 -5 -3 -9 -14 -9 -15 0 -19 -4 -14 -17 4 -11 8 -12 11 -5 2 7 8
12 13 12 6 0 7 -6 4 -12 -4 -7 3 -1 15 14 11 14 29 37 40 50 l20 23 -15 -30
c-14 -29 -14 -30 8 -37 22 -6 10 -11 -28 -10 -17 1 -17 0 -2 -4 22 -7 22 -12
-5 -35 l-23 -20 23 11 c15 7 22 7 22 0 0 -6 8 -5 20 2 11 7 18 18 16 25 -3 7
-1 15 3 18 16 9 19 -45 3 -57 -13 -10 -14 -10 -8 0 4 6 2 12 -3 12 -6 0 -11
-7 -11 -16 0 -12 -7 -15 -25 -11 -16 3 -24 0 -22 -7 2 -6 13 -11 24 -11 12 0
25 -4 29 -8 12 -11 11 -76 0 -69 -5 3 -6 -3 -2 -13 5 -15 4 -16 -9 -5 -14 11
-14 10 -6 -14 9 -21 8 -26 -5 -26 -11 0 -14 -5 -10 -17 4 -9 1 -20 -6 -25 -10
-6 -10 -8 0 -8 6 0 12 -5 12 -11 0 -6 -7 -9 -15 -6 -8 4 -17 2 -20 -3 -4 -6 1
-10 9 -10 9 0 16 -5 16 -11 0 -5 6 -7 13 -4 6 4 3 -2 -9 -12 -11 -10 -20 -28
-19 -40 1 -12 -2 -20 -6 -17 -4 2 -10 0 -14 -6 -4 -6 -10 -8 -15 -5 -5 3 -12
0 -15 -6 -5 -7 1 -10 16 -8 26 4 49 -7 49 -22 0 -6 -4 -7 -10 -4 -5 3 -10 2
-10 -4 0 -5 -3 -17 -6 -25 -4 -12 -2 -15 9 -11 10 4 18 -4 26 -26 11 -33 6
-54 -8 -31 -5 8 -19 10 -40 6 -22 -5 -28 -9 -20 -15 7 -4 21 -4 30 2 12 6 19
4 23 -6 3 -8 12 -12 21 -9 10 4 15 0 15 -10 0 -9 7 -19 15 -22 19 -8 20 -54 1
-54 -8 0 -17 -7 -20 -16 -4 -9 -13 -14 -22 -10 -9 3 -12 2 -8 -5 3 -6 14 -9
24 -6 10 2 23 1 30 -3 16 -10 4 -30 -16 -30 -9 0 -14 -6 -11 -12 2 -7 11 -12
20 -12 9 1 13 -4 10 -12 -3 -8 -13 -14 -22 -14 -9 0 -12 -3 -6 -8 10 -7 35
-48 35 -57 0 -3 -8 -5 -18 -5 -11 0 -24 -11 -30 -24 -9 -21 -8 -23 10 -18 15
3 16 7 7 13 -10 6 -9 9 4 15 10 3 20 4 23 1 10 -9 -15 -45 -35 -52 -13 -4 -17
-12 -14 -25 3 -12 0 -20 -6 -20 -7 0 -9 5 -5 12 4 7 3 8 -5 4 -18 -12 3 -31
36 -34 16 -1 38 5 49 13 13 9 14 14 5 15 -11 0 -11 3 -1 15 7 8 9 15 4 15 -5
0 -9 14 -9 30 0 17 3 30 8 30 4 0 7 12 7 26 0 14 6 32 14 40 8 7 12 23 9 34
-3 12 0 20 7 20 7 0 5 6 -5 16 -15 15 -14 18 6 40 12 13 18 24 12 24 -6 0 -14
-6 -16 -12 -4 -10 -6 -10 -6 0 -1 7 6 23 14 36 15 22 14 24 -5 29 -11 3 -20
10 -20 16 0 6 6 8 14 5 8 -3 15 4 18 20 4 18 1 23 -10 18 -10 -3 -13 -1 -8 6
4 7 16 12 27 12 10 0 19 5 19 11 0 6 9 8 20 4 11 -3 20 -2 20 3 0 6 15 12 34
14 19 2 33 1 30 -3 -6 -11 40 -19 50 -9 13 13 26 13 26 -1 0 -5 -4 -7 -10 -4
-5 3 -10 2 -10 -3 0 -6 7 -12 15 -16 9 -3 15 0 15 10 0 8 5 12 10 9 6 -3 10
-1 10 6 0 7 3 9 6 6 4 -4 1 -14 -7 -23 -13 -16 -12 -16 6 -6 13 6 27 7 37 1
11 -6 18 -4 22 6 3 9 -1 18 -9 21 -8 4 -15 9 -15 13 0 8 47 7 55 -1 3 -3 23
-2 45 2 33 6 42 4 57 -13 10 -11 12 -17 6 -13 -7 4 -13 2 -13 -3 0 -14 16 -14
41 0 11 5 16 15 13 21 -5 7 -2 8 5 4 9 -6 9 -12 -3 -25 -9 -10 -13 -21 -9 -24
3 -4 1 -7 -5 -7 -7 0 -12 -4 -12 -10 0 -5 6 -7 14 -4 7 3 20 -2 29 -10 8 -8
18 -12 21 -8 4 3 4 -1 0 -11 -6 -16 -24 -22 -49 -17 -16 3 27 -39 46 -45 31
-10 22 -25 -11 -19 -28 6 -39 -4 -22 -20 7 -7 8 -11 11 -37 1 -8 6 -8 16 1 17
14 21 35 5 25 -5 -3 -10 -1 -10 4 0 6 7 11 15 11 8 0 15 -4 15 -10 0 -5 5 -10
11 -10 6 0 9 7 5 15 -9 24 24 83 51 89 21 6 28 21 24 54 -1 6 5 12 14 12 8 0
14 6 12 13 -1 7 6 11 16 9 23 -4 32 21 17 48 -8 15 -8 25 -1 34 8 10 3 12 -22
9 -22 -3 -28 -2 -18 5 10 7 10 11 1 17 -6 4 -14 4 -17 1 -10 -10 -42 46 -36
63 3 9 -2 6 -12 -7 -13 -18 -25 -22 -58 -21 -23 2 -45 7 -49 13 -4 6 -11 6
-20 -1 -17 -13 -51 -13 -60 1 -5 7 -8 4 -8 -6 0 -10 -7 -18 -16 -18 -9 0 -12
5 -8 13 5 8 2 7 -9 -2 -16 -13 -29 -16 -102 -26 -16 -2 -42 -8 -57 -14 -21 -8
-28 -7 -28 2 0 9 -2 9 -8 -1 -12 -17 -62 -26 -62 -10 0 7 -5 4 -12 -5 -7 -10
-39 -24 -70 -33 -82 -24 -88 -17 -88 105 0 117 11 262 19 257 3 -2 7 33 7 78
1 44 8 111 16 149 8 37 14 66 14 66 -1 -1 -10 -4 -20 -6z m424 -663 c0 -5 -4
-10 -9 -10 -6 0 -13 5 -16 10 -3 6 1 10 9 10 9 0 16 -4 16 -10z m-482 -85 c-3
-3 -9 2 -12 12 -6 14 -5 15 5 6 7 -7 10 -15 7 -18z m612 9 c0 -17 -22 -14 -28
4 -2 7 3 12 12 12 9 0 16 -7 16 -16z m100 -39 c0 -12 -19 -12 -23 0 -4 9 -1
12 9 8 7 -3 14 -7 14 -8z m-52 -30 c-3 -3 -9 2 -12 12 -6 14 -5 15 5 6 7 -7
10 -15 7 -18z m-638 -331 c0 -8 -5 -14 -11 -14 -5 0 -7 5 -4 10 3 6 1 10 -4
10 -6 0 -11 4 -11 10 0 5 7 7 15 4 8 -4 15 -12 15 -20z"/>
<path d="M1809 1633 c-13 -17 -13 -17 6 -3 11 8 22 16 24 17 2 2 0 3 -6 3 -6
0 -17 -8 -24 -17z"/>
<path d="M1579 1600 c-2 -7 -8 -48 -13 -103 -3 -30 -1 -45 5 -41 6 3 9 16 8
27 -1 12 1 39 5 59 7 30 3 76 -5 58z"/>
<path d="M1549 1553 c-13 -16 -12 -17 4 -4 9 7 17 15 17 17 0 8 -8 3 -21 -13z"/>
<path d="M1602 1528 c-16 -16 -15 -41 1 -35 6 2 11 8 10 13 -1 5 10 9 23 9 28
0 31 -10 7 -24 -10 -6 -13 -11 -8 -11 6 0 24 11 40 25 l30 24 -37 -4 c-22 -3
-38 -1 -38 5 0 14 -13 13 -28 -2z"/>
<path d="M1831 1474 c0 -11 3 -14 6 -6 3 7 2 16 -1 19 -3 4 -6 -2 -5 -13z"/>
<path d="M1645 1440 c-10 -11 -13 -20 -7 -20 6 0 16 9 22 20 6 11 9 20 7 20
-2 0 -12 -9 -22 -20z"/>
<path d="M1821 1434 c0 -10 4 -28 9 -39 7 -16 8 -13 6 13 -3 35 -16 58 -15 26z"/>
<path d="M1353 1420 c-11 -16 -10 -18 2 -14 8 4 15 12 15 20 0 19 -3 18 -17
-6z"/>
<path d="M1586 1424 c-5 -14 -4 -15 9 -4 17 14 19 20 6 20 -5 0 -12 -7 -15
-16z"/>
<path d="M1735 1430 c-3 -5 -1 -10 4 -10 6 0 11 5 11 10 0 6 -2 10 -4 10 -3 0
-8 -4 -11 -10z"/>
<path d="M1666 1415 c-3 -8 -1 -15 4 -15 6 0 10 7 10 15 0 8 -2 15 -4 15 -2 0
-6 -7 -10 -15z"/>
<path d="M1607 1405 c-4 -8 -2 -17 3 -20 6 -4 10 3 10 14 0 25 -6 27 -13 6z"/>
<path d="M1732 1397 c-15 -18 -3 -57 17 -56 9 0 11 3 5 5 -6 2 -8 18 -6 34 5
33 0 37 -16 17z"/>
<path d="M1790 1401 c-8 -6 -18 -7 -22 -5 -4 3 -5 -1 -3 -8 9 -22 41 -19 42 3
2 22 3 22 -17 10z"/>
<path d="M1350 1390 c-9 -6 -10 -10 -3 -10 6 0 15 5 18 10 8 12 4 12 -15 0z"/>
<path d="M1640 1379 c0 -5 5 -7 10 -4 6 3 10 8 10 11 0 2 -4 4 -10 4 -5 0 -10
-5 -10 -11z"/>
<path d="M1463 1345 c0 -8 4 -12 9 -9 5 3 6 10 3 15 -9 13 -12 11 -12 -6z"/>
<path d="M1520 1349 c0 -5 5 -7 10 -4 6 3 10 8 10 11 0 2 -4 4 -10 4 -5 0 -10
-5 -10 -11z"/>
<path d="M1562 1323 c-2 -20 -6 -41 -9 -47 -4 -8 -2 -8 6 0 14 13 23 71 12 78
-4 3 -8 -11 -9 -31z"/>
<path d="M1700 1345 c0 -8 2 -15 4 -15 2 0 6 7 10 15 3 8 1 15 -4 15 -6 0 -10
-7 -10 -15z"/>
<path d="M1780 1349 c0 -5 5 -7 10 -4 6 3 10 8 10 11 0 2 -4 4 -10 4 -5 0 -10
-5 -10 -11z"/>
<path d="M1620 1310 c0 -5 5 -10 10 -10 6 0 10 5 10 10 0 6 -4 10 -10 10 -5 0
-10 -4 -10 -10z"/>
<path d="M1861 1294 c0 -11 3 -14 6 -6 3 7 2 16 -1 19 -3 4 -6 -2 -5 -13z"/>
<path d="M1516 1261 c-3 -5 1 -11 9 -15 8 -3 15 -1 15 4 0 13 -18 22 -24 11z"/>
<path d="M1730 1250 c0 -5 5 -10 11 -10 5 0 7 5 4 10 -3 6 -8 10 -11 10 -2 0
-4 -4 -4 -10z"/>
<path d="M1930 1151 c0 -6 4 -13 10 -16 6 -3 7 1 4 9 -7 18 -14 21 -14 7z"/>
<path d="M1185 1100 c-3 -5 -2 -10 4 -10 5 0 13 5 16 10 3 6 2 10 -4 10 -5 0
-13 -4 -16 -10z"/>
<path d="M2704 1102 c-12 -2 -30 -12 -40 -23 -9 -10 -21 -19 -25 -19 -9 0 -24
-11 -84 -62 -18 -15 -35 -25 -38 -22 -3 3 1 -13 9 -35 7 -22 11 -47 8 -56 -11
-28 4 -16 27 23 13 20 57 72 98 114 41 43 73 79 70 81 -2 1 -14 1 -25 -1z"/>
<path d="M1140 1090 c-9 -6 -10 -10 -3 -10 6 0 15 5 18 10 8 12 4 12 -15 0z"/>
<path d="M3035 1081 c-3 -5 4 -16 16 -25 43 -30 -17 -49 -78 -25 -15 6 -37 15
-48 19 -61 25 -103 10 -69 -24 8 -9 15 -19 14 -23 0 -4 3 -8 8 -9 4 0 34 -9
67 -19 56 -17 75 -21 118 -24 33 -2 56 -37 51 -78 -10 -80 -73 -223 -112 -253
-13 -11 -22 -20 -18 -20 4 0 0 -7 -9 -16 -17 -18 -15 -88 5 -124 6 -11 8 -20
5 -20 -3 0 0 -10 6 -22 7 -13 14 -32 16 -43 2 -11 12 -62 23 -114 11 -52 22
-112 25 -133 9 -74 27 -128 42 -128 11 0 13 7 9 27 -19 92 -86 520 -86 548 0
19 6 39 13 44 49 39 101 88 118 112 17 24 18 29 4 42 -19 19 -19 24 0 24 8 0
12 -4 9 -9 -11 -18 20 -7 37 14 20 22 24 33 11 24 -5 -3 -9 1 -9 8 0 8 6 12
12 9 7 -2 23 8 35 24 12 15 25 28 28 28 4 0 6 3 5 6 -1 3 9 5 23 3 24 -2 53
-28 54 -48 0 -6 7 -1 16 10 11 13 17 15 20 7 4 -10 11 -10 25 -2 11 5 23 8 28
5 9 -6 71 15 71 24 0 11 -448 189 -477 190 -1 0 -4 -4 -8 -9z m140 -251 c3 -5
1 -10 -4 -10 -6 0 -11 5 -11 10 0 6 2 10 4 10 3 0 8 -4 11 -10z"/>
<path d="M560 1049 c0 -5 5 -7 10 -4 6 3 10 8 10 11 0 2 -4 4 -10 4 -5 0 -10
-5 -10 -11z"/>
<path d="M760 1050 c0 -5 -6 -7 -12 -5 -16 6 -45 -11 -35 -21 3 -4 13 -1 22 6
18 15 20 -1 3 -18 -9 -9 -9 -12 0 -12 7 0 12 4 12 8 0 5 9 18 20 30 17 18 18
22 5 22 -8 0 -15 -4 -15 -10z"/>
<path d="M1176 1004 c-3 -9 -1 -23 4 -32 9 -15 10 -15 8 3 -1 11 1 26 5 33 5
6 4 12 -1 12 -6 0 -13 -7 -16 -16z"/>
<path d="M790 1000 c0 -5 5 -10 11 -10 5 0 7 5 4 10 -3 6 -8 10 -11 10 -2 0
-4 -4 -4 -10z"/>
<path d="M2285 999 c4 -8 17 -24 27 -35 10 -12 18 -25 16 -30 -1 -5 10 -31 25
-59 14 -27 26 -44 27 -37 0 7 -9 31 -20 52 -20 39 -16 52 8 28 7 -7 12 -8 12
-2 0 9 -64 73 -89 89 -10 6 -12 4 -6 -6z"/>
<path d="M661 983 c-7 -8 -11 -16 -8 -19 2 -2 10 2 17 11 17 20 9 27 -9 8z"/>
<path d="M542 965 c2 -26 12 -32 23 -15 3 6 1 10 -6 10 -8 0 -8 4 1 15 10 12
10 15 -4 15 -11 0 -15 -8 -14 -25z"/>
<path d="M1981 974 c0 -11 3 -14 6 -6 3 7 2 16 -1 19 -3 4 -6 -2 -5 -13z"/>
<path d="M1925 969 c-4 -6 -5 -12 -2 -15 2 -3 7 2 10 11 7 17 1 20 -8 4z"/>
<path d="M710 949 c0 -8 -13 -9 -37 -4 -24 4 -34 3 -28 -3 6 -5 26 -12 45 -15
30 -4 36 -2 36 14 0 10 -4 19 -8 19 -4 0 -8 -5 -8 -11z"/>
<path d="M1192 947 c-9 -10 -8 -18 2 -32 9 -13 15 -15 20 -6 4 6 0 14 -9 17
-13 5 -14 9 -4 15 8 4 11 11 8 14 -4 3 -11 -1 -17 -8z"/>
<path d="M1893 945 c0 -8 4 -15 9 -15 4 0 8 7 8 15 0 8 -4 15 -8 15 -5 0 -9
-7 -9 -15z"/>
<path d="M367 933 c10 -3 9 -8 -2 -20 -10 -10 -13 -23 -9 -37 4 -11 7 -34 8
-50 1 -16 7 -31 15 -34 9 -3 11 2 6 17 -4 13 -1 29 7 38 11 15 11 16 -6 10
-15 -6 -17 -5 -7 7 9 11 9 15 -1 19 -10 4 -11 7 0 18 18 19 15 39 -5 38 -11 0
-13 -3 -6 -6z"/>
<path d="M1090 930 c-9 -6 -10 -10 -3 -10 6 0 15 5 18 10 8 12 4 12 -15 0z"/>
<path d="M544 916 c-3 -8 -12 -12 -19 -10 -19 8 -30 -15 -30 -63 0 -39 1 -41
18 -25 10 8 15 22 12 29 -3 9 0 11 7 6 14 -8 51 -12 43 -5 -3 3 9 13 25 23 17
11 30 23 30 29 0 5 14 10 32 10 17 0 29 2 26 5 -6 6 -46 7 -81 2 -15 -2 -30 0
-33 4 -8 14 -24 11 -30 -5z m3 -29 c10 4 14 2 10 -4 -4 -6 -18 -10 -32 -10
-21 0 -23 2 -13 14 7 9 14 11 16 5 2 -6 10 -8 19 -5z"/>
<path d="M1130 920 c0 -5 5 -10 11 -10 5 0 7 5 4 10 -3 6 -8 10 -11 10 -2 0
-4 -4 -4 -10z"/>
<path d="M1804 908 c6 -10 14 -18 19 -18 4 0 5 5 1 11 -3 6 -1 15 6 19 8 5 4
8 -12 7 -21 -2 -23 -5 -14 -19z"/>
<path d="M1013 905 c0 -8 9 -15 20 -15 11 0 18 1 16 3 -2 1 -11 8 -20 15 -13
9 -16 9 -16 -3z"/>
<path d="M416 895 c-3 -8 -1 -15 4 -15 6 0 10 7 10 15 0 8 -2 15 -4 15 -2 0
-6 -7 -10 -15z"/>
<path d="M708 898 c8 -9 11 -21 8 -27 -3 -5 0 -11 6 -14 9 -3 7 -7 -6 -12 -21
-9 -42 15 -23 27 8 5 6 8 -5 8 -10 0 -18 -3 -18 -8 0 -11 -58 -34 -70 -27 -6
3 -7 0 -4 -9 7 -18 24 -17 40 3 14 18 50 10 46 -12 -3 -18 23 -24 33 -7 3 6
17 10 30 10 13 0 27 5 30 11 11 17 -3 23 -22 8 -15 -12 -16 -12 -10 4 4 9 2
17 -4 17 -6 0 -8 8 -5 17 4 10 4 14 0 10 -4 -4 -14 -1 -23 6 -14 10 -14 10 -3
-5z"/>
<path d="M950 892 c0 -4 9 -8 19 -8 11 0 17 4 15 8 -7 10 -34 10 -34 0z"/>
<path d="M1078 893 c7 -3 16 -2 19 1 4 3 -2 6 -13 5 -11 0 -14 -3 -6 -6z"/>
<path d="M1176 893 c-12 -12 -5 -22 14 -20 11 1 20 4 20 8 0 10 -27 19 -34 12z"/>
<path d="M1145 880 c3 -5 8 -10 11 -10 2 0 4 5 4 10 0 6 -5 10 -11 10 -5 0 -7
-4 -4 -10z"/>
<path d="M1439 874 c-10 -12 -9 -13 7 -8 18 5 18 5 2 -9 -10 -8 -15 -17 -11
-20 3 -4 12 1 19 11 13 16 13 16 14 0 0 -10 5 -18 10 -18 16 0 12 18 -9 39
-17 17 -21 18 -32 5z"/>
<path d="M420 855 c-11 -13 -10 -14 4 -9 13 5 15 2 10 -12 -4 -11 -14 -25 -22
-31 -14 -12 -14 -13 1 -13 9 0 17 6 17 13 1 7 6 4 15 -6 13 -18 14 -18 26 5
19 33 21 58 4 34 -12 -16 -41 -14 -31 3 3 4 1 13 -3 19 -6 10 -11 9 -21 -3z"/>
<path d="M1168 839 c-20 -21 -23 -39 -8 -39 6 0 10 5 10 12 0 6 3 8 6 5 10 -9
-25 -59 -36 -52 -6 4 -10 2 -10 -4 0 -5 5 -11 12 -13 6 -2 8 -10 4 -16 -9 -15
-36 -16 -36 -2 0 6 -7 10 -16 10 -8 0 -12 -4 -9 -10 4 -6 -6 -10 -22 -10 -20
0 -24 -3 -14 -9 11 -7 11 -9 0 -14 -10 -4 -9 -6 4 -6 9 -1 17 3 17 8 0 11 39
9 58 -3 9 -5 11 -23 8 -53 -6 -50 -12 -63 -28 -63 -7 0 -6 6 2 15 11 13 9 15
-13 15 -13 0 -31 -8 -38 -17 -11 -15 -11 -16 1 -5 19 16 30 15 30 -3 0 -8 -7
-15 -15 -15 -8 0 -15 -4 -15 -10 0 -5 -6 -7 -14 -4 -8 3 -17 1 -20 -4 -6 -10
28 -8 57 3 10 4 17 3 17 -4 0 -9 5 -9 20 -1 11 6 20 7 20 1 0 -13 -25 -21 -48
-14 -11 2 -23 0 -26 -6 -11 -16 5 -63 19 -57 8 3 11 -2 8 -14 -5 -17 -7 -17
-20 -5 -20 21 -22 19 -19 -12 1 -16 8 -27 15 -25 7 1 10 -2 7 -7 -9 -15 -45
-9 -39 6 3 7 1 13 -5 13 -18 0 -21 -29 -4 -39 15 -9 15 -10 -4 -11 -12 0 -24
-7 -28 -15 -4 -11 -14 -14 -33 -10 -23 4 -24 4 -8 -4 19 -9 18 -10 -5 -11 -23
-1 -23 -2 -5 -9 11 -5 25 -4 32 1 7 5 17 7 23 3 15 -9 -15 -36 -32 -30 -11 4
-15 -8 -16 -52 -5 -128 -6 -130 -24 -125 -21 5 -23 18 -5 26 6 4 2 4 -11 2
-21 -4 -23 -2 -17 26 5 20 4 28 -3 24 -6 -3 -13 -2 -16 3 -3 5 10 7 29 4 21
-3 35 0 35 6 0 6 -6 8 -14 5 -8 -3 -23 -1 -33 5 -17 10 -17 10 0 11 10 0 16 4
12 10 -3 5 -12 7 -20 3 -8 -3 -15 0 -15 7 0 7 8 10 20 7 11 -3 23 -1 26 4 5 9
-13 13 -46 11 -11 0 -10 3 4 14 11 8 14 14 7 14 -7 0 -9 5 -5 11 3 6 1 14 -5
18 -6 4 -12 39 -14 79 -1 40 -5 72 -8 72 -19 0 -17 34 2 51 18 16 19 19 6 19
-10 0 -17 -4 -17 -10 0 -5 -4 -10 -10 -10 -5 0 -7 8 -3 18 4 12 -3 9 -24 -10
-34 -32 -45 -34 -64 -11 -10 11 -10 14 -1 9 6 -4 12 -3 12 3 0 5 -6 12 -12 15
-7 3 -3 3 10 0 12 -3 22 -1 22 5 0 6 -3 10 -7 10 -26 -4 -34 2 -27 23 6 19 4
21 -7 11 -12 -10 -15 -8 -15 6 0 13 6 17 21 14 11 -2 14 -1 8 3 -19 8 -16 45
5 60 16 13 16 14 0 8 -12 -4 -18 -1 -18 7 0 11 -3 11 -10 -1 -8 -13 -10 -12
-10 4 0 13 5 17 19 13 10 -2 25 -1 32 4 9 6 1 9 -23 9 -23 0 -38 -5 -38 -12 0
-9 -3 -9 -12 0 -7 7 -17 8 -30 1 -12 -6 -18 -6 -18 0 0 6 -7 8 -15 5 -20 -8
-19 -16 7 -44 21 -22 21 -23 3 -36 -24 -18 -40 -3 -28 22 7 14 5 24 -9 37 -10
9 -18 13 -18 7 0 -5 -8 -10 -17 -10 -21 1 56 75 87 85 11 4 20 11 20 16 0 10
-26 -3 -97 -49 -13 -8 -23 -21 -23 -28 0 -8 -7 -14 -16 -14 -8 0 -12 5 -9 10
3 6 2 10 -3 10 -13 0 -43 -36 -36 -43 4 -4 1 -13 -6 -22 -16 -20 -6 -19 25 1
27 18 25 37 -3 27 -13 -4 -14 -3 -6 6 13 14 44 4 44 -14 0 -8 -9 -17 -20 -20
-15 -5 -19 -12 -16 -28 3 -12 3 -16 0 -9 -8 17 -31 15 -38 -3 -6 -17 -26 -20
-26 -4 0 5 4 8 8 5 5 -3 9 8 9 24 0 16 -3 27 -7 25 -3 -2 -12 0 -20 5 -12 7
-11 12 4 29 11 12 14 21 8 21 -6 0 -14 -5 -17 -11 -5 -6 -12 -4 -21 8 -12 16
-13 15 -8 -12 6 -37 37 -138 44 -145 5 -5 7 -12 17 -55 4 -17 3 -17 -6 -5 -10
13 -13 13 -22 -2 -11 -20 -29 -24 -29 -7 0 5 4 8 9 5 5 -3 11 1 15 9 3 8 1 15
-5 15 -6 0 -7 5 -3 12 5 7 2 9 -8 5 -11 -4 -18 1 -21 14 -4 16 -3 18 8 9 7 -6
16 -7 19 -2 3 5 -6 15 -19 22 -14 7 -25 21 -25 31 0 10 -5 21 -11 24 -20 13
-27 49 -12 63 19 19 12 46 -12 50 -20 3 -20 3 0 -14 18 -15 18 -16 1 -10 -14
5 -17 3 -12 -11 6 -15 5 -16 -5 -5 -18 17 -32 15 -25 -4 3 -8 3 -27 0 -41 -5
-19 -12 -24 -30 -20 l-23 4 20 -28 c20 -29 14 -40 -9 -17 -8 8 -12 9 -12 1 0
-6 7 -19 16 -27 8 -9 11 -16 5 -16 -6 0 -11 -10 -11 -22 0 -21 0 -21 -15 -2
-9 11 -14 14 -15 6 0 -7 11 -24 25 -37 13 -14 20 -25 15 -25 -5 0 -12 5 -15
10 -9 15 -25 2 -18 -16 3 -9 0 -14 -8 -12 -17 4 -30 -67 -15 -83 8 -9 7 -10
-6 -6 -20 7 -22 0 -9 -23 7 -10 4 -18 -11 -28 -14 -10 -17 -17 -9 -25 15 -15
14 -30 -2 -20 -6 4 -4 -5 6 -20 9 -15 13 -27 7 -27 -5 0 -10 5 -10 10 0 6 -5
10 -11 10 -7 0 -9 -10 -7 -25 3 -13 1 -22 -3 -19 -12 7 -11 -9 1 -40 5 -14 6
-25 2 -25 -21 3 -23 -3 -8 -26 17 -26 9 -34 -13 -12 -10 10 -11 9 -7 -3 3 -8
8 -28 10 -45 3 -16 13 -36 23 -42 9 -7 12 -13 7 -13 -6 0 -15 5 -21 11 -13 13
-28 -5 -18 -21 4 -6 177 -10 485 -10 l480 0 6 25 c3 14 9 23 13 21 3 -2 7 21
8 52 1 32 6 76 11 100 6 25 6 42 0 42 -5 0 -6 5 -3 10 4 6 11 7 17 4 7 -5 7
-1 0 12 -6 11 -7 27 -1 41 5 15 5 23 -2 23 -6 0 -1 15 10 33 15 24 17 37 10
44 -6 6 -8 17 -3 24 8 13 15 67 15 105 0 12 6 27 14 34 21 18 20 64 -1 56 -14
-5 -15 -4 -4 9 7 8 9 15 4 15 -4 0 -3 5 3 11 6 6 9 18 6 27 -4 9 -2 13 4 9 6
-4 9 4 7 21 -1 15 5 35 14 46 9 11 12 16 5 13 -8 -5 -14 7 -18 38 -8 50 -12
52 -37 24z m-603 -158 c-2 -11 3 -22 11 -25 12 -5 13 -10 4 -27 -11 -19 -10
-20 10 -9 12 6 24 9 27 6 4 -3 12 -1 20 5 7 6 13 7 13 3 0 -5 -9 -15 -21 -22
-12 -8 -18 -9 -14 -3 9 16 -4 13 -21 -4 -11 -11 -12 -15 -3 -15 7 0 4 -6 -7
-15 -10 -8 -31 -15 -45 -15 -23 0 -25 3 -22 37 1 21 9 43 18 49 8 6 15 21 15
33 0 11 4 21 9 21 6 0 8 -9 6 -19z m35 10 c0 -6 -4 -13 -10 -16 -5 -3 -10 1
-10 9 0 9 5 16 10 16 6 0 10 -4 10 -9z m104 0 c4 -5 -3 -7 -14 -4 -23 6 -26
13 -6 13 8 0 17 -4 20 -9z m-364 -43 c0 -6 -6 -5 -15 2 -8 7 -15 14 -15 16 0
2 7 1 15 -2 8 -4 15 -11 15 -16z m-45 -8 c4 -6 10 -8 15 -5 5 3 11 1 14 -4 13
-20 -17 -22 -35 -2 -11 12 -15 21 -10 21 5 0 13 -5 16 -10z m197 -28 c-7 -2
-12 -8 -12 -13 0 -4 7 -6 15 -3 21 8 19 1 -5 -21 -18 -17 -20 -17 -14 -2 4 12
1 17 -10 17 -14 0 -14 2 1 19 9 11 21 17 27 14 6 -4 6 -8 -2 -11z m-134 -27
c-3 -3 -9 2 -12 12 -6 14 -5 15 5 6 7 -7 10 -15 7 -18z m284 -7 c-7 -7 -12 -8
-12 -2 0 14 12 26 19 19 2 -3 -1 -11 -7 -17z m18 -18 c-8 -6 -11 -10 -6 -10 5
0 2 -7 -5 -16 -12 -15 -11 -16 9 -10 13 5 22 3 22 -3 0 -6 -3 -10 -7 -10 -22
4 -25 -3 -7 -17 19 -15 19 -15 -2 -9 -13 3 -26 -1 -33 -9 -10 -12 -16 -13 -26
-3 -18 17 -7 39 16 32 11 -4 19 -2 19 5 0 6 -5 8 -12 4 -9 -5 -9 -2 1 9 14 17
4 23 -15 10 -5 -5 4 4 20 19 16 15 32 25 35 22 3 -3 -1 -9 -9 -14z m60 16 c0
-2 -8 -10 -17 -17 -16 -13 -17 -12 -4 4 13 16 21 21 21 13z m-213 -46 c2 -21
-11 -27 -22 -10 -7 11 2 30 13 30 4 0 8 -9 9 -20z m43 16 c0 -2 -7 -7 -16 -10
-8 -3 -12 -2 -9 4 6 10 25 14 25 6z m20 -27 c-7 -11 -14 -18 -17 -15 -3 3 0
12 7 21 18 21 23 19 10 -6z m219 -31 c-43 -26 -48 -22 -14 10 17 15 33 23 37
18 4 -6 -7 -18 -23 -28z m321 22 c0 -5 -5 -10 -11 -10 -5 0 -7 5 -4 10 3 6 8
10 11 10 2 0 4 -4 4 -10z m-619 -25 c19 -8 29 -14 23 -15 -7 0 -27 7 -45 15
-19 8 -29 14 -23 15 7 0 27 -7 45 -15z m-41 -26 c0 -5 -4 -9 -10 -9 -5 0 -10
7 -10 16 0 8 5 12 10 9 6 -3 10 -10 10 -16z m103 -5 c-7 -20 -19 -17 -19 5 0
11 6 17 13 14 6 -3 9 -11 6 -19z m247 -12 c0 -10 -3 -13 -8 -7 -10 14 -32 17
-32 5 0 -5 -6 -10 -12 -10 -7 1 -2 9 11 20 25 22 41 18 41 -8z m-322 -7 c-3
-3 -9 2 -12 12 -6 14 -5 15 5 6 7 -7 10 -15 7 -18z m182 21 c0 -2 -7 -7 -16
-10 -8 -3 -12 -2 -9 4 6 10 25 14 25 6z m-235 -34 c-3 -3 -11 0 -18 7 -9 10
-8 11 6 5 10 -3 15 -9 12 -12z m142 -14 c-15 -9 -19 -4 -11 16 5 14 9 15 15 5
5 -8 3 -17 -4 -21z m54 -1 c-10 -9 -11 -8 -5 6 3 10 9 15 12 12 3 -3 0 -11 -7
-18z m153 4 c3 -5 0 -14 -7 -19 -10 -8 -13 -6 -14 9 -2 19 11 26 21 10z m-313
-38 c5 -13 13 -22 18 -18 5 3 12 1 15 -4 4 -5 -2 -8 -11 -6 -10 2 -21 4 -24 4
-6 1 -29 47 -29 57 0 13 22 -11 31 -33z m104 -3 c3 -5 1 -10 -4 -10 -6 0 -11
5 -11 10 0 6 2 10 4 10 3 0 8 -4 11 -10z m85 -1 c0 8 3 12 6 8 10 -10 -6 -26
-21 -21 -8 4 -12 11 -9 16 4 6 10 5 15 -3 7 -12 9 -12 9 0z m387 -5 c-3 -3
-12 -4 -19 -1 -8 3 -5 6 6 6 11 1 17 -2 13 -5z m-513 -30 c3 -8 2 -12 -4 -9
-6 3 -10 10 -10 16 0 14 7 11 14 -7z m156 2 c0 -2 -7 -7 -16 -10 -8 -3 -12 -2
-9 4 6 10 25 14 25 6z m-160 -36 c0 -5 -5 -10 -11 -10 -5 0 -7 5 -4 10 3 6 8
10 11 10 2 0 4 -4 4 -10z m85 0 c3 -5 -1 -10 -10 -10 -9 0 -13 5 -10 10 3 6 8
10 10 10 2 0 7 -4 10 -10z m420 -13 c6 -4 1 -7 -10 -5 -12 2 -19 -2 -18 -9 2
-7 -6 -17 -17 -23 -17 -9 -19 -8 -13 7 8 23 37 52 43 44 3 -3 10 -9 15 -14z
m-477 -12 c-3 -3 -9 2 -12 12 -6 14 -5 15 5 6 7 -7 10 -15 7 -18z m92 -10 c0
-5 -5 -3 -10 5 -5 8 -10 20 -10 25 0 6 5 3 10 -5 5 -8 10 -19 10 -25z m40 10
c-7 -8 -17 -15 -23 -15 -6 0 -2 7 9 15 25 19 30 19 14 0z m334 -42 c-5 -5 -12
-12 -16 -18 -4 -6 -8 -2 -8 8 0 9 7 17 17 17 9 0 12 -3 7 -7z m-34 -43 c0 -5
-5 -10 -11 -10 -5 0 -7 5 -4 10 3 6 8 10 11 10 2 0 4 -4 4 -10z m-46 -86 c4
-11 2 -12 -13 -5 -10 6 -21 7 -25 4 -3 -3 -6 -2 -6 4 0 26 34 24 44 -3z"/>
<path d="M545 630 c-13 -15 -15 -23 -6 -33 6 -8 8 -17 4 -20 -3 -4 1 -7 10 -7
24 0 30 17 10 28 -14 9 -15 12 -4 26 20 24 7 30 -14 6z"/>
<path d="M2510 845 c0 -8 2 -15 4 -15 2 0 6 7 10 15 3 8 1 15 -4 15 -6 0 -10
-7 -10 -15z"/>
<path d="M4125 840 c-3 -6 1 -7 9 -4 18 7 21 14 7 14 -6 0 -13 -4 -16 -10z"/>
<path d="M1120 809 c0 -5 5 -7 10 -4 6 3 10 8 10 11 0 2 -4 4 -10 4 -5 0 -10
-5 -10 -11z"/>
<path d="M4048 812 c-16 -2 -28 -7 -28 -12 0 -5 10 -7 22 -5 12 3 26 -1 30 -8
6 -9 8 -9 8 0 0 7 6 10 14 7 8 -3 17 0 21 5 3 6 10 9 15 6 5 -3 11 -2 13 3 5
7 -45 10 -95 4z"/>
<path d="M561 793 c-26 -13 -36 -14 -39 -5 -6 20 -21 4 -15 -17 6 -22 25 -22
50 1 10 10 30 21 43 27 14 5 18 10 10 10 -8 0 -30 -7 -49 -16z"/>
<path d="M310 790 c0 -5 5 -10 10 -10 6 0 10 5 10 10 0 6 -4 10 -10 10 -5 0
-10 -4 -10 -10z"/>
<path d="M855 789 c-4 -6 -5 -12 -2 -15 2 -3 7 2 10 11 7 17 1 20 -8 4z"/>
<path d="M688 783 c7 -3 16 -2 19 1 4 3 -2 6 -13 5 -11 0 -14 -3 -6 -6z"/>
<path d="M390 770 c0 -5 5 -10 10 -10 6 0 10 5 10 10 0 6 -4 10 -10 10 -5 0
-10 -4 -10 -10z"/>
<path d="M2486 765 c4 -8 2 -15 -4 -15 -5 0 -15 -14 -22 -31 l-13 -31 -19 33
c-11 19 -17 26 -14 16 13 -42 28 -148 22 -162 -3 -8 -2 -16 3 -19 4 -3 8 -26
9 -53 2 -40 10 -116 27 -268 1 -11 3 -29 4 -40 2 -19 2 -19 12 -2 7 12 7 87
-1 247 -9 167 -9 243 -1 280 13 62 13 60 1 60 -5 0 -7 -7 -4 -15z"/>
<path d="M435 760 c3 -5 8 -10 11 -10 2 0 4 5 4 10 0 6 -5 10 -11 10 -5 0 -7
-4 -4 -10z"/>
<path d="M675 760 c3 -5 10 -10 16 -10 5 0 9 5 9 10 0 6 -7 10 -16 10 -8 0
-12 -4 -9 -10z"/>
<path d="M730 760 c0 -5 7 -10 16 -10 8 0 12 5 9 10 -3 6 -10 10 -16 10 -5 0
-9 -4 -9 -10z"/>
<path d="M4080 756 c0 -8 4 -17 8 -20 4 -2 8 4 8 15 0 10 -4 19 -8 19 -4 0 -8
-6 -8 -14z"/>
<path d="M4127 755 c-14 -10 -17 -20 -11 -37 12 -34 12 -68 1 -68 -5 0 -7 7
-3 15 4 12 2 13 -15 2 -19 -11 -18 -12 11 -21 37 -11 39 -21 4 -24 -17 -1 -23
2 -18 10 4 7 3 8 -4 4 -17 -10 -15 -26 4 -26 11 0 14 -5 10 -16 -4 -12 -1 -14
14 -9 20 6 28 -9 10 -20 -17 -10 -11 -25 10 -25 11 0 20 -5 20 -11 0 -6 -9 -8
-21 -4 -15 5 -19 4 -15 -4 4 -6 22 -11 39 -10 18 0 27 3 20 5 -7 3 -9 12 -6
20 3 7 -2 17 -11 20 -15 6 -15 9 -1 30 8 13 11 24 6 24 -6 0 -6 12 0 32 12 42
12 43 -6 28 -9 -8 -15 -8 -15 -2 0 6 -3 19 -7 29 -6 16 -5 16 10 5 14 -12 15
-11 11 14 -8 46 -16 54 -37 39z m23 -26 c0 -5 -4 -9 -10 -9 -5 0 -10 7 -10 16
0 8 5 12 10 9 6 -3 10 -10 10 -16z"/>
<path d="M480 749 c0 -5 -4 -7 -10 -4 -5 3 -10 2 -10 -4 0 -5 -3 -18 -7 -28
-6 -16 -5 -16 11 -4 23 19 40 51 26 51 -5 0 -10 -5 -10 -11z"/>
<path d="M1088 753 c7 -3 16 -2 19 1 4 3 -2 6 -13 5 -11 0 -14 -3 -6 -6z"/>
<path d="M1215 740 c3 -5 8 -10 11 -10 2 0 4 5 4 10 0 6 -5 10 -11 10 -5 0 -7
-4 -4 -10z"/>
<path d="M4051 734 c0 -11 3 -14 6 -6 3 7 2 16 -1 19 -3 4 -6 -2 -5 -13z"/>
<path d="M2045 730 c3 -5 11 -10 16 -10 6 0 7 5 4 10 -3 6 -11 10 -16 10 -6 0
-7 -4 -4 -10z"/>
<path d="M4065 710 c-3 -5 -1 -10 4 -10 6 0 11 5 11 10 0 6 -2 10 -4 10 -3 0
-8 -4 -11 -10z"/>
<path d="M275 700 c3 -5 8 -10 11 -10 2 0 4 5 4 10 0 6 -5 10 -11 10 -5 0 -7
-4 -4 -10z"/>
<path d="M1850 701 c0 -6 4 -12 8 -15 5 -3 9 1 9 9 0 8 -4 15 -9 15 -4 0 -8
-4 -8 -9z"/>
<path d="M380 691 c0 -7 -5 -9 -12 -5 -7 5 -8 3 -3 -5 5 -9 10 -10 18 -2 6 6
8 14 4 18 -4 3 -7 1 -7 -6z"/>
<path d="M773 683 c3 -12 0 -24 -7 -27 -6 -2 -3 -5 7 -5 19 -1 22 16 6 39 -9
12 -10 11 -6 -7z"/>
<path d="M1814 688 c-5 -7 -3 -8 6 -3 10 6 12 4 7 -8 -4 -11 -1 -17 9 -17 12
0 12 4 4 20 -12 23 -16 24 -26 8z"/>
<path d="M1110 672 c0 -10 -6 -24 -12 -31 -11 -11 -9 -11 9 0 12 7 21 21 20
31 -2 23 -17 24 -17 0z"/>
<path d="M2050 680 c0 -5 5 -10 10 -10 6 0 10 5 10 10 0 6 -4 10 -10 10 -5 0
-10 -4 -10 -10z"/>
<path d="M1060 670 c0 -6 4 -9 9 -6 5 4 12 1 14 -4 3 -6 4 -5 3 2 -3 15 -26
23 -26 8z"/>
<path d="M1448 673 c7 -3 16 -2 19 1 4 3 -2 6 -13 5 -11 0 -14 -3 -6 -6z"/>
<path d="M1886 663 c-6 -14 -5 -15 5 -6 7 7 10 15 7 18 -3 3 -9 -2 -12 -12z"/>
<path d="M1465 650 c-3 -5 -1 -10 4 -10 6 0 11 5 11 10 0 6 -2 10 -4 10 -3 0
-8 -4 -11 -10z"/>
<path d="M2030 650 c0 -5 5 -10 11 -10 5 0 7 5 4 10 -3 6 -8 10 -11 10 -2 0
-4 -4 -4 -10z"/>
<path d="M1936 615 c-6 -18 2 -45 15 -45 5 0 9 -4 9 -8 0 -5 -7 -9 -15 -9 -8
0 -15 6 -15 14 0 7 -5 13 -11 13 -5 0 -8 4 -5 9 9 14 -28 19 -41 5 -9 -9 -9
-14 3 -18 8 -3 12 -10 9 -16 -3 -5 1 -10 10 -10 13 0 12 -4 -5 -22 -21 -23
-26 -24 -64 -27 -15 -1 -16 -4 -6 -16 10 -12 10 -15 -4 -15 -9 0 -16 -5 -16
-11 0 -5 5 -7 10 -4 10 6 11 3 14 -32 1 -10 4 -22 7 -28 4 -5 9 -21 12 -35 5
-19 18 -29 49 -40 39 -14 43 -18 42 -48 0 -17 1 -32 3 -32 12 0 43 22 43 31 0
6 -9 5 -22 -2 -21 -11 -22 -11 -10 4 8 9 11 21 7 27 -9 15 4 12 21 -5 9 -8 21
-15 27 -14 8 0 8 2 -1 6 -8 3 -9 9 -4 16 17 22 23 49 9 41 -7 -5 -6 -1 3 10
12 16 12 19 -5 29 -19 10 -19 11 5 18 23 6 23 7 3 8 -19 1 -20 4 -11 29 13 32
5 74 -17 96 -20 19 -19 26 3 26 10 0 5 6 -14 16 -24 11 -30 20 -27 35 6 22 -2
26 -11 4z m52 -103 c32 -41 -4 -112 -57 -112 -32 0 -46 13 -56 52 -6 22 -1 33
24 58 33 34 63 34 89 2z"/>
<path d="M1890 445 c0 -21 18 -37 40 -33 30 4 39 28 10 28 -12 0 -18 -4 -15
-10 11 -17 -7 -11 -21 8 -7 9 -13 13 -14 7z"/>
<path d="M1835 610 c19 -8 18 -9 -4 -9 -13 -1 -21 -4 -17 -8 11 -11 29 -10 42
2 14 12 -1 25 -26 24 -10 0 -8 -3 5 -9z"/>
<path d="M2043 603 c0 -9 4 -10 14 -2 7 6 13 12 13 14 0 1 -6 2 -13 2 -8 0
-14 -6 -14 -14z"/>
<path d="M820 591 c0 -5 7 -11 14 -14 10 -4 13 -1 9 9 -6 15 -23 19 -23 5z"/>
<path d="M941 574 c0 -11 3 -14 6 -6 3 7 2 16 -1 19 -3 4 -6 -2 -5 -13z"/>
<path d="M2013 551 c1 -15 4 -17 19 -8 13 8 14 13 5 19 -19 12 -26 9 -24 -11z"/>
<path d="M3358 563 c7 -3 16 -2 19 1 4 3 -2 6 -13 5 -11 0 -14 -3 -6 -6z"/>
<path d="M1860 540 c0 -5 5 -10 11 -10 5 0 7 5 4 10 -3 6 -8 10 -11 10 -2 0
-4 -4 -4 -10z"/>
<path d="M3174 519 c-17 -5 -36 -15 -42 -22 -13 -15 1 -42 17 -33 6 4 8 12 5
18 -4 6 -2 8 3 5 11 -7 62 28 53 36 -3 2 -19 0 -36 -4z"/>
<path d="M3092 500 c0 -14 2 -19 5 -12 2 6 2 18 0 25 -3 6 -5 1 -5 -13z"/>
<path d="M1297 499 c7 -7 15 -10 18 -7 3 3 -2 9 -12 12 -14 6 -15 5 -6 -5z"/>
<path d="M1405 500 c3 -5 8 -10 11 -10 2 0 4 5 4 10 0 6 -5 10 -11 10 -5 0 -7
-4 -4 -10z"/>
<path d="M1035 490 c-19 -8 -19 -9 3 -9 12 -1 22 4 22 9 0 6 -1 10 -2 9 -2 0
-12 -4 -23 -9z"/>
<path d="M1507 483 c-12 -12 -17 -13 -17 -4 0 9 -4 8 -16 -3 -8 -9 -27 -17
-42 -18 -15 0 -31 -2 -37 -3 -5 -2 -14 -4 -20 -5 -5 -1 -1 -5 10 -9 11 -4 34
-5 52 -1 33 8 57 -13 27 -24 -8 -3 -14 -11 -13 -18 0 -9 2 -9 6 1 4 10 10 5
18 -15 l13 -29 -3 30 c-1 17 4 38 13 48 12 13 12 17 2 17 -9 0 -5 9 10 25 26
28 24 35 -3 8z"/>
<path d="M4150 490 c0 -5 -8 -6 -17 -3 -16 6 -16 5 -4 -10 7 -9 18 -14 25 -10
7 4 6 1 -1 -8 -10 -13 -10 -19 2 -35 15 -19 16 -19 13 0 -2 13 6 25 22 34 23
13 23 13 3 9 -19 -4 -21 -2 -14 12 7 13 5 17 -10 18 -10 1 -19 -2 -19 -7z"/>
<path d="M874 476 c-10 -27 2 -43 14 -19 8 14 9 24 2 28 -6 3 -13 -1 -16 -9z"/>
<path d="M1435 480 c-3 -6 1 -7 9 -4 18 7 21 14 7 14 -6 0 -13 -4 -16 -10z"/>
<path d="M4380 480 c0 -5 5 -10 11 -10 5 0 7 5 4 10 -3 6 -8 10 -11 10 -2 0
-4 -4 -4 -10z"/>
<path d="M3103 472 c-8 -5 -9 -13 -3 -22 7 -12 10 -12 16 3 8 21 3 29 -13 19z"/>
<path d="M4175 414 c-12 -19 -14 -29 -6 -37 8 -8 11 -8 11 1 0 7 4 12 10 12 5
0 7 -7 4 -15 -4 -9 0 -15 10 -15 20 0 16 37 -5 51 -12 8 -12 10 1 19 8 5 10
10 4 10 -7 0 -19 -12 -29 -26z"/>
<path d="M1422 418 c1 -7 -3 -24 -10 -38 -13 -24 -12 -24 3 -5 31 38 37 55 20
55 -9 0 -15 -6 -13 -12z"/>
<path d="M4308 383 c-29 -7 -20 -20 15 -20 17 0 26 2 19 5 -6 2 -10 8 -6 13 5
9 1 10 -28 2z"/>
<path d="M4357 370 c3 -11 9 -20 14 -20 11 0 11 3 3 24 -9 23 -23 20 -17 -4z"/>
<path d="M1430 365 c0 -17 9 -19 28 -6 11 7 10 10 -3 15 -23 9 -25 8 -25 -9z"/>
<path d="M4165 330 c-12 -20 5 -48 25 -43 11 3 17 9 14 14 -3 5 2 9 10 9 10 0
13 -6 10 -15 -4 -9 0 -15 9 -15 10 0 13 7 10 20 -6 23 -8 25 -45 34 -15 3 -30
2 -33 -4z m20 -20 c3 -5 1 -10 -4 -10 -6 0 -11 5 -11 10 0 6 2 10 4 10 3 0 8
-4 11 -10z"/>
<path d="M4304 323 c3 -3 1 -14 -5 -24 -5 -11 -6 -19 -1 -19 5 0 14 -12 21
-27 10 -26 10 -27 -4 -9 -16 21 -22 20 -25 -4 -5 -33 0 -51 13 -44 6 4 9 4 5
0 -11 -13 26 -42 46 -38 12 3 17 1 13 -5 -4 -6 -1 -16 7 -22 10 -9 13 -7 12
11 -1 16 -8 24 -24 26 -12 2 -20 7 -17 12 3 5 12 7 20 4 13 -5 13 -1 0 30 -9
21 -11 36 -5 36 5 0 10 5 10 11 0 5 -4 7 -10 4 -14 -9 -13 8 2 23 16 16 -2 34
-37 38 -15 1 -24 0 -21 -3z m41 -23 c18 -8 17 -9 -7 -9 -16 -1 -28 4 -28 9 0
12 8 12 35 0z"/>
<path d="M1150 299 c0 -5 5 -7 10 -4 6 3 10 8 10 11 0 2 -4 4 -10 4 -5 0 -10
-5 -10 -11z"/>
<path d="M1322 285 c-6 -14 -8 -25 -3 -25 8 0 23 41 17 47 -1 2 -8 -8 -14 -22z"/>
<path d="M1350 302 c0 -4 9 -13 20 -20 12 -7 18 -17 15 -21 -2 -5 6 -8 19 -7
14 0 22 6 19 13 -3 7 -9 10 -15 7 -5 -3 -12 3 -14 13 -5 17 -44 31 -44 15z"/>
<path d="M4570 289 c0 -5 5 -7 10 -4 6 3 10 8 10 11 0 2 -4 4 -10 4 -5 0 -10
-5 -10 -11z"/>
<path d="M1430 284 c0 -17 17 -36 24 -26 3 5 -1 15 -9 22 -8 7 -15 9 -15 4z"/>
<path d="M4517 283 c-4 -3 -7 -15 -7 -25 0 -10 -5 -18 -11 -18 -6 0 -9 -9 -6
-20 3 -10 0 -21 -7 -24 -7 -3 -7 -5 0 -5 6 -1 19 9 30 21 19 21 19 21 -1 14
-18 -7 -18 -6 2 16 13 14 19 28 14 36 -4 7 -10 9 -14 5z"/>
<path d="M1345 269 c-9 -14 -2 -20 14 -10 8 6 9 11 3 15 -6 3 -14 1 -17 -5z"/>
<path d="M4173 264 c10 -11 58 -13 51 -3 -3 5 -17 9 -31 9 -15 0 -23 -3 -20
-6z"/>
<path d="M1300 223 c-15 -7 -26 -9 -28 -3 -4 12 -22 3 -22 -11 0 -5 6 -9 14
-9 21 0 27 -27 11 -44 -20 -20 -51 -13 -47 10 2 18 2 18 -9 1 -20 -34 11 -57
47 -35 5 4 15 -2 22 -13 7 -10 8 -19 3 -19 -5 0 -11 6 -14 13 -8 23 -18 0 -11
-27 7 -29 33 -36 30 -8 0 10 6 16 16 16 10 -1 15 3 11 9 -3 6 -1 7 5 3 6 -4 8
-14 5 -23 -4 -11 -3 -14 5 -9 15 9 16 -28 1 -56 -9 -16 -8 -19 3 -15 7 2 12
10 11 16 -2 6 1 11 6 11 5 0 8 11 7 25 0 14 -4 25 -8 25 -5 0 -8 6 -8 13 0 18
-37 40 -42 25 -3 -9 -6 -9 -12 0 -4 8 2 15 17 21 26 10 43 51 26 62 -6 3 -10
9 -9 13 4 17 -7 21 -30 9z m24 -49 c4 -10 1 -14 -6 -12 -15 5 -23 28 -10 28 5
0 13 -7 16 -16z"/>
<path d="M1986 223 c-6 -14 -5 -15 5 -6 7 7 10 15 7 18 -3 3 -9 -2 -12 -12z"/>
<path d="M3383 225 c0 -8 4 -12 9 -9 5 3 6 10 3 15 -9 13 -12 11 -12 -6z"/>
<path d="M4130 237 c3 -3 23 -8 44 -11 22 -4 37 -4 34 0 -4 3 -24 8 -45 11
-21 3 -36 3 -33 0z"/>
<path d="M1350 215 c0 -8 9 -19 19 -24 15 -8 20 -7 23 7 7 25 46 25 53 1 4
-10 11 -19 16 -19 6 0 7 5 4 10 -4 6 -1 17 5 25 9 11 9 15 1 15 -6 0 -11 -6
-11 -12 0 -9 -3 -10 -8 -2 -4 6 -28 12 -54 13 -36 1 -48 -2 -48 -14z"/>
<path d="M1930 215 c0 -8 5 -15 11 -15 5 0 7 5 3 12 -5 7 -3 8 6 3 10 -6 9
-11 -5 -21 -10 -8 -15 -17 -12 -21 4 -3 -3 -18 -15 -32 -13 -14 -16 -20 -8
-13 18 15 31 16 28 0 -2 -6 9 -13 25 -14 32 -3 37 13 5 18 -12 2 -24 10 -26
18 -4 12 -2 13 9 3 9 -7 20 -8 28 -4 10 7 9 10 -8 16 -17 5 -19 10 -11 25 15
28 12 40 -10 40 -11 0 -20 -7 -20 -15z"/>
<path d="M3346 218 c3 -4 9 -8 15 -8 5 0 9 4 9 8 0 5 -7 9 -15 9 -8 0 -12 -4
-9 -9z"/>
<path d="M4416 207 c3 -10 9 -15 12 -12 3 3 0 11 -7 18 -10 9 -11 8 -5 -6z"/>
<path d="M4650 200 c-8 -5 -12 -12 -9 -15 4 -3 12 1 19 10 14 17 11 19 -10 5z"/>
<path d="M1980 190 c0 -5 5 -10 10 -10 6 0 10 5 10 10 0 6 -4 10 -10 10 -5 0
-10 -4 -10 -10z"/>
<path d="M4615 183 c2 -10 4 -20 5 -23 1 -3 2 -8 1 -12 -1 -9 21 -4 44 10 13
8 15 12 5 11 -36 -3 -49 1 -44 16 4 8 2 15 -4 15 -6 0 -9 -8 -7 -17z"/>
<path d="M3249 173 c-13 -16 -12 -17 4 -4 16 13 21 21 13 21 -2 0 -10 -8 -17
-17z"/>
<path d="M4241 178 c-1 -13 -10 -18 -33 -18 -34 0 -35 -6 -3 -12 11 -1 23 -7
27 -13 11 -16 20 1 15 32 -2 15 -5 20 -6 11z"/>
<path d="M4148 173 c6 -2 18 -2 25 0 6 3 1 5 -13 5 -14 0 -19 -2 -12 -5z"/>
<path d="M4288 173 c-2 -4 -2 -45 0 -90 l4 -83 30 0 c28 0 30 2 24 28 -3 15
-3 21 0 15 4 -9 11 -10 24 -3 13 7 19 6 24 -5 3 -8 1 -17 -4 -20 -6 -4 -10 -1
-10 4 0 6 -4 11 -8 11 -5 0 -9 -6 -9 -13 0 -10 16 -14 53 -15 43 0 53 3 57 19
4 15 2 17 -13 9 -24 -13 -43 -13 -35 0 4 6 11 8 16 5 5 -4 9 -1 9 5 0 8 9 10
23 6 14 -3 33 1 48 11 l24 16 -21 -24 c-41 -47 -40 -50 18 -47 54 3 85 23 68
43 -6 7 -1 11 12 12 28 3 46 22 52 57 5 28 5 28 -13 10 -10 -11 -17 -26 -17
-34 1 -8 -7 -16 -17 -18 -15 -3 -16 0 -6 22 7 14 17 26 22 26 6 0 7 3 4 7 -4
3 -17 -2 -29 -13 -13 -10 -20 -15 -16 -10 4 5 -2 18 -15 29 l-22 19 23 -6 c13
-5 22 -3 22 3 0 17 -49 25 -76 12 -21 -9 -23 -14 -14 -31 6 -12 7 -20 1 -20
-5 0 -12 6 -15 13 -3 9 -9 7 -19 -6 -13 -16 -15 -16 -21 -1 -9 24 -7 34 7 30
6 -1 9 -1 5 1 -4 2 -5 12 -2 21 5 15 4 15 -6 -1 -8 -13 -15 -15 -30 -7 -26 14
-33 12 -18 -4 7 -8 17 -11 22 -8 5 3 6 -2 3 -12 -4 -10 -1 -26 7 -37 12 -18
15 -18 29 -5 9 9 22 13 31 10 9 -3 23 1 32 11 9 9 19 14 21 11 11 -10 -28 -37
-74 -51 -26 -8 -49 -15 -51 -15 -2 0 0 9 3 20 9 29 -8 24 -27 -8 -11 -17 -18
-21 -18 -11 0 9 -11 29 -25 45 -14 16 -25 33 -25 38 0 5 -3 6 -7 3 -3 -4 -17
2 -29 14 -12 11 -24 17 -26 12z m88 -105 c4 -5 -4 -8 -17 -6 -12 1 -24 8 -26
15 -5 14 34 6 43 -9z"/>
<path d="M1363 155 c0 -8 4 -12 9 -9 5 3 6 10 3 15 -9 13 -12 11 -12 -6z"/>
<path d="M2000 154 c0 -8 5 -12 10 -9 6 4 8 11 5 16 -9 14 -15 11 -15 -7z"/>
<path d="M3319 153 c-13 -16 -12 -17 4 -4 16 13 21 21 13 21 -2 0 -10 -8 -17
-17z"/>
<path d="M1150 140 c6 -11 15 -18 21 -15 5 4 3 12 -5 21 -21 20 -28 17 -16 -6z"/>
<path d="M3335 140 c-3 -5 1 -10 10 -10 9 0 13 5 10 10 -3 6 -8 10 -10 10 -2
0 -7 -4 -10 -10z"/>
<path d="M3250 130 c-9 -6 -10 -10 -3 -10 6 0 15 5 18 10 8 12 4 12 -15 0z"/>
<path d="M1230 106 c0 -9 5 -16 10 -16 6 0 10 4 10 9 0 6 -4 13 -10 16 -5 3
-10 -1 -10 -9z"/>
<path d="M4168 113 c7 -3 16 -2 19 1 4 3 -2 6 -13 5 -11 0 -14 -3 -6 -6z"/>
<path d="M4200 111 c0 -4 11 -6 25 -3 14 2 25 6 25 8 0 2 -11 4 -25 4 -14 0
-25 -4 -25 -9z"/>
<path d="M1195 100 c-3 -5 -2 -10 4 -10 5 0 13 5 16 10 3 6 2 10 -4 10 -5 0
-13 -4 -16 -10z"/>
<path d="M1377 90 c20 -8 60 -6 69 3 2 1 -18 3 -44 4 -36 1 -42 -1 -25 -7z"/>
<path d="M1930 90 c0 -5 15 -10 33 -9 27 0 29 2 12 9 -28 12 -45 12 -45 0z"/>
<path d="M4710 91 c0 -10 19 -25 25 -20 1 2 -3 10 -11 17 -8 7 -14 8 -14 3z"/>
<path d="M4678 73 c-2 -33 -3 -38 -11 -50 -5 -7 -1 -9 12 -6 20 5 37 43 19 43
-5 0 -7 4 -3 9 3 5 1 12 -5 16 -5 3 -11 -2 -12 -12z"/>
<path d="M1930 55 c0 -8 4 -15 9 -15 5 0 13 -10 16 -21 6 -17 9 -19 16 -8 4 8
3 16 -3 20 -6 4 -8 11 -4 17 3 5 -1 13 -10 16 -22 9 -24 8 -24 -9z"/>
<path d="M1157 45 c-4 -8 -16 -15 -29 -15 -21 0 -21 -1 -3 -14 17 -12 20 -11
32 12 7 14 12 27 9 29 -2 2 -6 -3 -9 -12z"/>
<path d="M1215 51 c-44 -7 -37 -21 7 -16 15 2 27 0 27 -3 -3 -20 2 -32 11 -27
6 4 8 16 5 28 -4 17 -2 15 10 -5 9 -16 23 -28 31 -28 8 0 12 5 9 10 -4 6 -11
8 -16 5 -5 -3 -6 1 -3 9 5 12 -26 40 -38 35 -2 -1 -21 -5 -43 -8z"/>
<path d="M1316 44 c-9 -24 -7 -28 9 -14 17 14 20 30 6 30 -5 0 -12 -7 -15 -16z"/>
<path d="M4719 43 c-11 -15 -11 -16 0 -6 7 6 20 9 27 6 8 -3 14 0 14 6 0 17
-26 13 -41 -6z"/>
<path d="M1380 35 c0 -8 7 -15 15 -15 8 0 15 4 15 9 0 5 -7 11 -15 15 -9 3
-15 0 -15 -9z"/>
<path d="M4632 44 c4 -4 2 -16 -4 -28 -11 -21 -11 -21 11 -2 25 23 25 22 4 30
-10 4 -14 4 -11 0z"/>
<path d="M1420 23 c0 -10 4 -14 8 -8 4 6 11 13 16 18 5 4 2 7 -7 7 -10 0 -17
-8 -17 -17z"/>
<path d="M3287 34 c-4 -4 -4 -10 -1 -15 6 -10 34 0 34 12 0 10 -24 12 -33 3z"/>
<path d="M1916 21 c-3 -5 1 -11 9 -15 8 -3 15 -1 15 4 0 13 -18 22 -24 11z"/>
<path d="M1205 10 c-3 -5 1 -10 9 -10 9 0 16 5 16 10 0 6 -4 10 -9 10 -6 0
-13 -4 -16 -10z"/>
</g>
</svg>
